<svg width="30" height="30" viewBox="0 0 30 30" fill="none" xmlns="http://www.w3.org/2000/svg">
<path d="M29.6334 27.8663L21.1023 19.3351C22.7548 17.2939 23.7498 14.7002 23.7498 11.8752C23.7498 5.32777 18.4223 0.000305176 11.8748 0.000305176C5.32741 0.000305176 0 5.32771 0 11.8752C0 18.4226 5.32747 23.7501 11.8749 23.7501C14.6999 23.7501 17.2936 22.7551 19.3348 21.1026L27.866 29.6337C28.1097 29.8775 28.4297 30 28.7497 30C29.0698 30 29.3898 29.8775 29.6335 29.6337C30.1222 29.145 30.1222 28.355 29.6334 27.8663ZM11.8749 21.2501C6.70494 21.2501 2.5 17.0451 2.5 11.8752C2.5 6.70518 6.70494 2.50024 11.8749 2.50024C17.0449 2.50024 21.2498 6.70518 21.2498 11.8752C21.2498 17.0451 17.0448 21.2501 11.8749 21.2501Z" fill="white"/>
</svg>
